<svg xmlns="http://www.w3.org/2000/svg" width="276" height="276" viewBox="0 0 276 276">
  <path id="typescriptlang-icon" d="M0,138V276H276V0H0Zm222.419-11a34.373,34.373,0,0,1,17.262,9.944c2.544,2.717,6.309,7.667,6.615,8.849.086.345-11.915,8.409-19.19,12.924-.259.173-1.315-.962-2.5-2.717-3.549-5.175-7.271-7.4-12.967-7.8-8.366-.569-13.8,3.812-13.713,11.126a10.119,10.119,0,0,0,1.182,5.175c1.841,3.812,5.261,6.089,15.99,10.738,19.759,8.5,28.212,14.1,33.464,22.079,5.865,8.892,7.184,23.088,3.2,33.645-4.381,11.48-15.244,19.276-30.532,21.864-4.731.832-15.947.7-21.027-.216-11.083-1.971-21.6-7.447-28.082-14.632-2.544-2.8-7.491-10.121-7.184-10.652a20.955,20.955,0,0,1,2.544-1.621l10.25-5.908,7.935-4.6,1.665,2.458c2.32,3.549,7.4,8.409,10.47,10.031,8.806,4.644,20.9,3.985,26.853-1.358a10.146,10.146,0,0,0,3.592-8.28c0-3.2-.388-4.6-2.057-7.008-2.148-3.062-6.529-5.649-18.974-11.04-14.239-6.132-20.372-9.944-25.978-15.99a36.417,36.417,0,0,1-7.581-13.8c-1.052-3.9-1.315-13.67-.483-17.612,2.932-13.8,13.317-23.351,28.3-26.2,4.864-.919,16.171-.569,20.941.612ZM157.626,138.52l.086,11.3H121.79V251.892H96.381V149.818H60.459V138.735l.3-11.385c.129-.172,21.993-.259,48.5-.216l48.234.129Z" transform="translate(0 0.002)" fill="#007acc"/>
</svg>
